<svg width="24" height="24" viewBox="0 0 24 24" fill="none" xmlns="http://www.w3.org/2000/svg">
<path d="M17 22C14.239 22 12 19.761 12 17C12 14.239 14.239 12 17 12C19.762 12 22 14.239 22 17C22 19.761 19.762 22 17 22Z" stroke="#323232" stroke-width="1.5" stroke-linecap="round" stroke-linejoin="round"/>
<path d="M21 14.001V7.94C21 6.836 20.105 5.94 19 5.94H12.529C12.198 5.94 11.888 5.776 11.702 5.502L10.297 3.437C10.111 3.164 9.802 3 9.471 3H5C3.895 3 3 3.895 3 5V17C3 18.105 3.895 19 5 19H12.418" stroke="#323232" stroke-width="1.5" stroke-linecap="round" stroke-linejoin="round"/>
<path d="M17 14.778V15.522" stroke="#323232" stroke-width="1.5" stroke-linecap="round" stroke-linejoin="round"/>
<path d="M17 18.478V19.222" stroke="#323232" stroke-width="1.5" stroke-linecap="round" stroke-linejoin="round"/>
<path d="M15.0779 15.889L15.7219 16.256" stroke="#323232" stroke-width="1.5" stroke-linecap="round" stroke-linejoin="round"/>
<path d="M18.2891 17.744L18.9221 18.111" stroke="#323232" stroke-width="1.5" stroke-linecap="round" stroke-linejoin="round"/>
<path d="M15.0779 18.111L15.7219 17.744" stroke="#323232" stroke-width="1.5" stroke-linecap="round" stroke-linejoin="round"/>
<path d="M18.2891 16.256L18.9221 15.889" stroke="#323232" stroke-width="1.5" stroke-linecap="round" stroke-linejoin="round"/>
<path d="M17.0001 15.518C17.8191 15.518 18.4821 16.182 18.4821 17C18.4821 17.818 17.8191 18.482 17.0001 18.482C16.1811 18.482 15.5181 17.819 15.5181 17C15.5181 16.181 16.1811 15.518 17.0001 15.518Z" stroke="#323232" stroke-width="1.5" stroke-linecap="round" stroke-linejoin="round"/>
</svg>
