<svg width="130" height="109" viewBox="0 0 130 109" fill="none" xmlns="http://www.w3.org/2000/svg">
    <g clip-path="url(#clip0)">
        <path d="M38.3904 103.348C38.0349 103.348 37.7048 103.424 37.3748 103.55C36.1814 104.054 34.7595 104.054 33.5662 103.55L24.6287 99.7146C23.3845 99.1848 22.0642 98.9072 20.6931 98.9072C20.5408 98.9072 20.4138 98.9072 20.2615 98.9072C18.865 98.9577 17.7732 100.144 17.824 101.531C17.8747 102.894 18.9919 103.954 20.363 103.954C20.4138 103.954 20.4392 103.954 20.4646 103.954C20.5408 103.954 20.6169 103.954 20.6677 103.954C21.3279 103.954 21.988 104.08 22.572 104.332L31.5095 108.167C32.7537 108.697 34.074 108.975 35.4451 108.975C36.8162 108.975 38.1365 108.697 39.3806 108.167C39.99 107.89 40.4724 107.41 40.7263 106.779C40.9802 106.149 40.9548 105.467 40.7009 104.862C40.3201 103.954 39.406 103.348 38.3904 103.348Z"
              fill="#89C083"/>
        <path d="M9.67374 102.692C9.36905 102.692 9.03897 102.742 8.73428 102.869C7.43936 103.373 6.7792 104.837 7.31241 106.149C7.69327 107.133 8.63272 107.738 9.67374 107.738C9.97842 107.738 10.3085 107.688 10.6132 107.562C11.248 107.309 11.7304 106.83 12.0097 106.224C12.289 105.594 12.289 104.912 12.0351 104.281C11.6542 103.323 10.7148 102.692 9.67374 102.692Z"
              fill="#89C083"/>
        <path d="M55.0729 100.093C54.7429 99.9673 54.4128 99.8916 54.0573 99.8916C53.0417 99.8916 52.1276 100.497 51.7214 101.405C51.1628 102.692 51.7468 104.181 53.0417 104.711C53.3718 104.837 53.7018 104.913 54.0573 104.913C55.0729 104.913 55.987 104.307 56.3932 103.399C56.9518 102.137 56.3425 100.649 55.0729 100.093Z"
              fill="#89C083"/>
        <path d="M83.6872 99.7146C82.4431 99.1848 81.1228 98.9072 79.7517 98.9072C78.3806 98.9072 77.0603 99.1848 75.8162 99.7146L66.8787 103.55C66.2947 103.802 65.6345 103.928 64.9744 103.928C64.8982 103.928 64.822 103.928 64.7712 103.928C63.3748 103.878 62.1814 104.938 62.1306 106.351C62.0798 107.763 63.1716 108.924 64.5681 108.975C64.7205 108.975 64.8474 108.975 64.9997 108.975C66.3708 108.975 67.6912 108.697 68.9353 108.167L77.8728 104.332C79.0662 103.827 80.488 103.827 81.6814 104.332C82.0115 104.458 82.3415 104.534 82.697 104.534C83.7126 104.534 84.6267 103.928 85.0329 103.02C85.3122 102.389 85.3122 101.708 85.0583 101.102C84.779 100.472 84.2966 99.9922 83.6872 99.7146Z"
              fill="#89C083"/>
        <path d="M125.785 102.213C124.439 103.399 122.459 103.702 120.758 102.97L113.191 99.7151C110.703 98.6301 107.834 98.6301 105.345 99.7151L96.4079 103.575C95.113 104.131 94.529 105.619 95.0876 106.906C95.6462 108.193 97.1442 108.773 98.4391 108.218L107.377 104.358C108.595 103.828 109.966 103.828 111.185 104.358L118.752 107.613C120.021 108.168 121.341 108.42 122.687 108.42C125.049 108.42 127.359 107.587 129.162 105.998C130.203 105.064 130.304 103.475 129.365 102.44C128.425 101.38 126.826 101.279 125.785 102.213Z"
              fill="#89C083"/>
        <path d="M56.875 42.9443C57.5605 41.1276 57.5605 39.0334 56.6973 37.1663C54.9961 33.4572 50.2988 31.7415 46.5918 33.432C42.7832 35.173 41.082 39.6642 42.834 43.4741C44.5351 47.1579 49.2324 48.8989 52.9394 47.2084C54.8183 46.3505 56.1894 44.7862 56.875 42.9443ZM50.832 42.6163C49.5879 43.1966 48.0391 42.6163 47.4551 41.3799C46.8711 40.1183 47.4297 38.6045 48.6992 38.0241C49.9687 37.4438 51.4922 38.0241 52.0762 39.2605C52.6601 40.5473 52.1016 42.0359 50.832 42.6163Z"
              fill="#89C083"/>
        <path d="M55.0476 51.8004C51.2898 53.5162 49.5632 58.0831 51.2898 61.8425C52.5593 64.618 55.3269 66.258 58.2214 66.258C59.2878 66.258 60.3542 66.031 61.3698 65.5768C63.2487 64.7189 64.6198 63.1546 65.3054 61.3127C65.9909 59.496 65.9909 57.4018 65.1276 55.5347C63.4011 51.7247 58.8562 50.0595 55.0476 51.8004ZM60.5827 59.5465C60.3542 60.152 59.8972 60.6819 59.2624 60.9594C57.9929 61.5398 56.4694 60.9847 55.8855 59.7231C55.3015 58.4615 55.8855 56.9476 57.1296 56.3673C58.3991 55.787 59.9226 56.3673 60.5066 57.6037C60.8112 58.2597 60.8112 58.9409 60.5827 59.5465Z"
              fill="#89C083"/>
        <path d="M59.7439 80.1856C61.4704 83.9198 66.0661 85.6356 69.8493 83.9198C73.6325 82.2041 75.3337 77.6372 73.6071 73.8777C71.8806 70.1435 67.2595 68.4277 63.5017 70.1435C59.7439 71.8592 58.0173 76.4261 59.7439 80.1856ZM65.6091 74.7356C66.8786 74.1553 68.4021 74.7356 68.986 75.9719C69.2653 76.6027 69.2907 77.284 69.0622 77.8895C68.8337 78.4951 68.3767 79.0249 67.7419 79.3025C66.4724 79.8828 64.9489 79.3025 64.365 78.0661C63.781 76.8298 64.3649 75.3159 65.6091 74.7356Z"
              fill="#89C083"/>
        <path d="M105.828 92.3977C108.012 91.4641 110.525 91.4641 112.709 92.3977L118.752 94.9965C122.256 96.5104 126.344 95.8796 129.162 93.3817C130.203 92.4481 130.305 90.8585 129.365 89.8241C128.426 88.7896 126.826 88.6886 125.785 89.6222C124.439 90.8081 122.459 91.1109 120.758 90.3792L114.715 87.7803C111.236 86.2916 107.275 86.2916 103.797 87.7803L96.4082 90.9595C95.2149 91.4641 93.8438 91.4893 92.625 90.9595L89.2734 83.6676L107.732 75.2655C109.002 74.6852 109.561 73.1965 108.977 71.9097L103.695 60.4294L108.316 58.3352C108.926 58.0576 109.408 57.553 109.637 56.9222C109.865 56.2914 109.84 55.6102 109.561 55.0046L104.279 43.5243C103.695 42.2627 102.197 41.7076 100.902 42.2879L75.5117 53.844L69.4688 40.7236L71.4492 39.1592C73.709 37.3678 75.2324 34.1886 75.2324 31.2618C75.2324 29.8236 74.9023 28.3854 74.3184 27.0734L74.0898 26.5687C73.5059 25.3324 71.9824 24.7521 70.7383 25.3324C69.4688 25.9127 68.9102 27.4014 69.4941 28.6882L69.7227 29.1928C70.0273 29.8488 70.1797 30.5553 70.1797 31.287C70.1797 34.4662 67.0059 36.2576 64.7715 38.049C63.8574 38.7808 63.5527 40.0171 64.0605 41.0768L85.668 88.0074L85.2109 87.8055C81.7324 86.3169 77.7715 86.3169 74.293 87.8055L66.9043 90.9847C65.6855 91.5146 64.3145 91.5146 63.0957 90.9847L58.1445 88.8148L34.0742 36.5856C31.5352 31.0599 33.3125 24.525 38.2891 21.0178L59.1856 6.33307L59.9727 8.02358C60.3789 8.93192 61.293 9.48701 62.2832 9.48701C62.6387 9.48701 62.9941 9.41131 63.3496 9.25992C64.5938 8.70483 65.1777 7.16571 64.5938 5.92937L62.5371 1.4634C62.2324 0.782146 61.6231 0.277516 60.8867 0.0756645C60.1504 -0.126187 59.3633 0.0252015 58.7539 0.454137L35.3691 16.9051C28.666 21.5981 26.1016 30.2525 29.0723 37.7715L22.5469 49.3023C22.166 49.9835 22.1152 50.8162 22.4199 51.5479L39.2539 90.1521L37.375 90.9595C36.1562 91.4893 34.7852 91.4893 33.5664 90.9595L26.1777 87.7803C22.6992 86.2916 18.7383 86.2916 15.2598 87.7803L9.21679 90.3792C7.51562 91.1109 5.56054 90.8081 4.18945 89.6222C3.14843 88.6886 1.54882 88.7896 0.609369 89.8241C-0.330084 90.8585 -0.228521 92.4481 0.812494 93.3817C3.63085 95.8796 7.71875 96.5104 11.2227 94.9965L17.2656 92.3977C19.4492 91.4641 21.9629 91.4641 24.1465 92.3977L31.5352 95.5768C34.0234 96.6618 36.8926 96.6618 39.3809 95.5768L46.7695 92.3977C48.9531 91.4641 51.4668 91.4641 53.6504 92.3977L61.0391 95.5768C63.5273 96.6618 66.3965 96.6618 68.8848 95.5768L76.2734 92.3977C78.457 91.4641 80.9707 91.4641 83.1543 92.3977L90.543 95.5768C91.7871 96.1067 93.1328 96.3842 94.4785 96.3842C95.8242 96.3842 97.1445 96.1067 98.4141 95.5768L105.828 92.3977ZM44.7891 87.7551L43.9258 88.1335L27.5742 50.6648L31.6621 43.4486L51.5938 86.6954C49.2832 86.4683 46.9473 86.8215 44.7891 87.7551ZM77.6445 58.4361L100.725 47.9398L103.898 54.828L80.8184 65.3243L77.6445 58.4361ZM82.9512 69.9164L99.0996 62.5741L103.34 71.7583L87.1914 79.1007L82.9512 69.9164Z"
              fill="#89C083"/>
        <path d="M64.7207 18.3431C65.1269 19.2262 66.041 19.8066 67.0312 19.8066C67.3867 19.8066 67.7421 19.7309 68.0976 19.5795C68.707 19.3019 69.1894 18.7973 69.4179 18.1665C69.6464 17.5357 69.6211 16.8545 69.3418 16.2237C68.9355 15.3153 68.0214 14.7603 67.0312 14.7603C66.6757 14.7603 66.3203 14.8359 65.9648 14.9873C65.3554 15.2649 64.873 15.7695 64.6445 16.4003C64.416 17.0563 64.4414 17.7376 64.7207 18.3431Z"
              fill="#89C083"/>
    </g>
    <defs>
        <clipPath id="clip0">
            <rect width="130" height="109" fill="white"/>
        </clipPath>
    </defs>
</svg>
