<?xml version="1.0" encoding="UTF-8"?>
<svg version="1.1" viewBox="0 0 24 24" xmlns="http://www.w3.org/2000/svg"
     xmlns:xlink="http://www.w3.org/1999/xlink"><!--Generated by IJSVG (https://github.com/iconjar/IJSVG)-->
    <g fill="none">
        <path d="M0,0h24v24h-24Z"></path>
        <path stroke="#323232" stroke-linecap="round" stroke-linejoin="round" stroke-width="1.5"
              d="M11,7h-4v-2.5l5.32907e-15,7.54979e-08c-4.16963e-08,-0.276142 0.223858,-0.5 0.5,-0.5h2.13962l1.50299e-08,8.88178e-14c0.215216,1.27338e-06 0.406285,0.137718 0.47434,0.34189Z"></path>
        <path stroke="#323232" stroke-linecap="round" stroke-linejoin="round" stroke-width="1.5"
              d="M3,17v0l2.18316e-07,-9.50925e-08c1.14792,-0.5 2.45208,-0.5 3.6,1.90185e-07v0l2.18316e-07,9.50925e-08c1.14792,0.5 2.45208,0.5 3.6,-1.90185e-07v0l2.18316e-07,-9.50925e-08c1.14792,-0.5 2.45208,-0.5 3.6,1.90185e-07v0l2.18316e-07,9.50925e-08c1.14792,0.5 2.45208,0.5 3.6,-1.90185e-07v0l2.74316e-07,-1.19484e-07c1.14792,-0.5 2.45208,-0.5 3.6,2.38968e-07v0"></path>
        <path stroke="#323232" stroke-linecap="round" stroke-linejoin="round" stroke-width="1.5"
              d="M6.6,20v0l2.18316e-07,9.50925e-08c1.14792,0.5 2.45208,0.5 3.6,-1.90185e-07v0l2.18316e-07,-9.50925e-08c1.14792,-0.5 2.45208,-0.5 3.6,1.90185e-07v0l2.18316e-07,9.50925e-08c1.14792,0.5 2.45208,0.5 3.6,-1.90185e-07v0"></path>
        <path stroke="#323232" stroke-linecap="round" stroke-linejoin="round" stroke-width="1.5"
              d="M5,11l0.81063,-3.24254l-1.54898e-08,6.1958e-08c0.111294,-0.445168 0.511281,-0.757464 0.97015,-0.75746h6.98315l2.09352e-08,-7.28306e-14c0.757545,-2.652e-06 1.45007,0.428001 1.78886,1.10557l1.44721,2.89443"></path>
        <path stroke="#323232" stroke-linecap="round" stroke-linejoin="round" stroke-width="1.5"
              d="M3.92237,16.7092l-0.90261,-4.513l1.14945e-08,5.74561e-08c-0.108342,-0.541554 0.242846,-1.0684 0.7844,-1.17674c0.0645938,-0.0129225 0.130306,-0.0194308 0.19618,-0.0194301h15.9981l5.4171e-08,2.13163e-14c0.552285,2.39209e-07 1,0.447716 1,1c-7.85021e-08,0.181245 -0.0492588,0.359083 -0.14251,0.5145l-2.51439,4.19064"></path>
    </g>
</svg>