<?xml version="1.0" encoding="UTF-8"?>
<svg version="1.1" viewBox="0 0 24 24" xmlns="http://www.w3.org/2000/svg"
     xmlns:xlink="http://www.w3.org/1999/xlink"><!--Generated by IJSVG (https://github.com/iconjar/IJSVG)-->
    <g fill="none">
        <path d="M0,0h24v24h-24Z"></path>
        <path stroke="#323232" stroke-linecap="round" stroke-linejoin="round" stroke-width="1.5"
              d="M16,18.42h-7.658"></path>
        <path stroke="#323232" stroke-linecap="round" stroke-linejoin="round" stroke-width="1.5"
              d="M22,13h-3.5h-2.18557e-08c-0.276142,-1.20706e-08 -0.5,-0.223858 -0.5,-0.5c0,0 0,-1.77636e-15 0,-1.77636e-15v-3.5h3.49983"></path>
        <path stroke="#323232" stroke-linecap="round" stroke-linejoin="round" stroke-width="1.5"
              d="M18.5566,17.4393l1.37522e-08,1.37509e-08c0.585814,0.585759 0.585859,1.53551 0.000100314,2.12132c-0.585759,0.585814 -1.53551,0.585859 -2.12132,0.000100314c-0.585814,-0.585759 -0.585859,-1.53551 -0.000100314,-2.12132c1.14205e-07,-1.14216e-07 2.26982e-07,-2.27003e-07 3.41187e-07,-3.41219e-07l0.00011,-0.00011l-1.1749e-07,1.17489e-07c0.585758,-0.585752 1.53545,-0.585752 2.12121,-2.34978e-07v0"></path>
        <path stroke="#323232" stroke-linecap="round" stroke-linejoin="round" stroke-width="1.5" d="M2,4h8"></path>
        <path stroke="#323232" stroke-linecap="round" stroke-linejoin="round" stroke-width="1.5"
              d="M10,4l-4.37114e-08,8.88178e-16c0.552285,-2.41411e-08 1,0.447715 1,1"></path>
        <path stroke="#323232" stroke-linecap="round" stroke-linejoin="round" stroke-width="1.5" d="M11,5v6"></path>
        <path stroke="#323232" stroke-linecap="round" stroke-linejoin="round" stroke-width="1.5"
              d="M4.56061,17.4393l1.37522e-08,1.37509e-08c0.585814,0.585759 0.585859,1.53551 0.000100314,2.12132c-0.585759,0.585814 -1.53551,0.585859 -2.12132,0.000100314c-0.585814,-0.585759 -0.585859,-1.53551 -0.000100314,-2.12132c1.14205e-07,-1.14216e-07 2.26982e-07,-2.27003e-07 3.41187e-07,-3.41219e-07l0.0003,-0.0003l-8.35389e-08,8.35366e-08c0.585662,-0.585646 1.53519,-0.585632 2.12084,2.93149e-05c5.35005e-05,5.3502e-05 0.000106997,0.000107008 0.000160489,0.000160518v0"></path>
        <path stroke="#323232" stroke-linecap="round" stroke-linejoin="round" stroke-width="1.5"
              d="M7.7346,17.4393l1.37522e-08,1.37509e-08c0.585814,0.585759 0.585859,1.53551 0.000100314,2.12132c-0.585759,0.585814 -1.53551,0.585859 -2.12132,0.000100314c-0.585814,-0.585759 -0.585859,-1.53551 -0.000100314,-2.12132c1.14205e-07,-1.14216e-07 2.26982e-07,-2.27003e-07 3.41187e-07,-3.41219e-07l0.0003,-0.0003l-8.35389e-08,8.35366e-08c0.585662,-0.585646 1.53519,-0.585632 2.12084,2.93149e-05c5.35005e-05,5.3502e-05 0.000106997,0.000107008 0.000160489,0.000160518v0"></path>
        <path stroke="#323232" stroke-linecap="round" stroke-linejoin="round" stroke-width="1.5"
              d="M18.9951,18.5h2.00489h-4.37114e-08c0.552285,2.41411e-08 1,-0.447715 1,-1v-7.02772l4.21174e-11,-1.29797e-05c0,-0.310582 -0.072336,-0.616897 -0.211276,-0.894669l-1.23653,-2.47226l5.93132e-08,1.18588e-07c-0.338831,-0.677441 -1.03129,-1.10534 -1.78874,-1.10534h-4.76345"></path>
        <path stroke="#323232" stroke-linecap="round" stroke-linejoin="round" stroke-width="1.5"
              d="M2,14h12v-10"></path>
    </g>
</svg>