<?xml version="1.0" encoding="UTF-8"?>
<svg width="24px" height="24px" viewBox="0 0 24 24" version="1.1" xmlns="http://www.w3.org/2000/svg"
     xmlns:xlink="http://www.w3.org/1999/xlink">
    <!-- Generator: sketchtool 53.2 (72643) - https://sketchapp.com -->
    <title>9CC7EB92-DDB0-454B-8E62-B4D336CCB7EE</title>
    <desc>Created with sketchtool.</desc>
    <g id="Symbols" stroke="none" stroke-width="1" fill="none" fill-rule="evenodd">
        <g id="icon/log-out" fill="#828C96" fill-rule="nonzero">
            <path d="M9.02083333,20.8 C9.65365961,20.8 10.1666667,21.2924868 10.1666667,21.9 C10.1666667,22.5075132 9.65365961,23 9.02083333,23 L4.4375,23 C2.53902117,23 1,21.5225397 1,19.7 L1,4.3 C1,2.47746033 2.53902117,1 4.4375,1 L9.02083333,1 C9.65365961,1 10.1666667,1.49248678 10.1666667,2.1 C10.1666667,2.70751322 9.65365961,3.2 9.02083333,3.2 L4.4375,3.2 C3.80467372,3.2 3.29166667,3.69248678 3.29166667,4.3 L3.29166667,19.7 C3.29166667,20.3075132 3.80467372,20.8 4.4375,20.8 L9.02083333,20.8 Z M19.1996551,10.9305556 L15.5343514,7.4089892 C15.0996607,6.99134516 15.0996607,6.31421039 15.5343514,5.89656636 C15.9690421,5.47892232 16.673815,5.47892232 17.1085058,5.89656636 L22.673982,11.2437886 C23.1086727,11.6614326 23.1086727,12.3385674 22.673982,12.7562114 L17.1085058,18.1034336 C16.673815,18.5210777 15.9690421,18.5210777 15.5343514,18.1034336 C15.0996607,17.6857896 15.0996607,17.0086548 15.5343514,16.5910108 L19.1996551,13.0694444 L8.5297619,13.0694444 C7.91501638,13.0694444 7.41666667,12.5906379 7.41666667,12 C7.41666667,11.4093621 7.91501638,10.9305556 8.5297619,10.9305556 L19.1996551,10.9305556 Z"
                  id="Combined-Shape"></path>
        </g>
    </g>
</svg>