<?xml version="1.0" encoding="UTF-8"?>
<svg version="1.1" viewBox="0 0 24 24" xmlns="http://www.w3.org/2000/svg"
     xmlns:xlink="http://www.w3.org/1999/xlink"><!--Generated by IJSVG (https://github.com/iconjar/IJSVG)-->
    <g stroke-linecap="round" stroke-width="1.5" stroke="#323232" fill="none" stroke-linejoin="round">
        <path d="M2,18h16.7088l1.54918e-07,2.66454e-13c1.81665,3.11127e-06 3.28934,-1.47268 3.28935,-3.28933c5.00721e-07,-0.292368 -0.0389782,-0.58343 -0.115906,-0.865496v0l-1.43495e-07,-5.26154e-07c-1.1022,-4.04144 -4.77298,-6.84517 -8.96202,-6.84517h-10.9202"></path>
        <path d="M2,21h20"></path>
        <path d="M19.7558,10h-2.67934l4.1581e-08,-1.10134e-13c-0.895403,2.38743e-06 -1.62127,0.725872 -1.62127,1.62127c3.53432e-07,0.132555 0.0162569,0.264609 0.0484056,0.393206v0l-7.16197e-09,-2.8648e-08c0.291725,1.1669 1.34019,1.98552 2.543,1.98552h3.87238"></path>
        <path d="M2,10h8l-8.74228e-08,1.77636e-15c1.10457,-4.82823e-08 2,0.89543 2,2v0v0c0,1.10457 -0.895431,2 -2,2h-8"></path>
        <path d="M8,14v-4"></path>
        <path d="M4,14v-4"></path>
    </g>
    <path fill="none" d="M24,0h-24v24h24Z"></path>
</svg>