<?xml version="1.0" encoding="UTF-8"?>
<svg width="24px" height="24px" viewBox="0 0 24 24" version="1.1" xmlns="http://www.w3.org/2000/svg"
     xmlns:xlink="http://www.w3.org/1999/xlink">
    <!-- Generator: sketchtool 53.2 (72643) - https://sketchapp.com -->
    <title>3FF6ED49-FAB1-4B0E-B153-82E6E8C14BDF</title>
    <desc>Created with sketchtool.</desc>
    <defs>
        <path d="M14,12 C14,13.1 13.1,14 12,14 C10.9,14 10,13.1 10,12 C10,10.9 10.9,10 12,10 C13.1,10 14,10.9 14,12 Z M12,7 C13.1,7 14,6.1 14,5 C14,3.9 13.1,3 12,3 C10.9,3 10,3.9 10,5 C10,6.1 10.9,7 12,7 Z M12,17 C10.9,17 10,17.9 10,19 C10,20.1 10.9,21 12,21 C13.1,21 14,20.1 14,19 C14,17.9 13.1,17 12,17 Z"
              id="path-1"></path>
    </defs>
    <g id="Symbols" stroke="none" stroke-width="1" fill="none" fill-rule="evenodd">
        <g id="icon-/-more-vertical">
            <mask id="mask-2" fill="white">
                <use xlink:href="#path-1"></use>
            </mask>
            <use id="Shape" fill="#828C96" fill-rule="nonzero" xlink:href="#path-1"></use>
        </g>
    </g>
</svg>