<svg viewBox="0 0 24 24" fill="none" xmlns="http://www.w3.org/2000/svg">
    <path fill-rule="evenodd" clip-rule="evenodd"
          d="M17.0312 2C17.4416 0.834805 18.549 0 19.8507 0C21.5017 0 22.8402 1.34314 22.8402 3C22.8402 4.65683 21.5017 6 19.8507 6C18.549 6 17.4416 5.16518 17.0312 4H6.39753C5.82451 4 4.90045 4.20338 4.14757 4.70705C3.43542 5.18347 2.90968 5.89579 2.90968 7C2.90968 8.10421 3.43542 8.81653 4.14757 9.29295C4.90045 9.79662 5.82451 10 6.39753 10H17.3593C18.2811 10 19.5992 10.2966 20.7148 11.0429C21.8712 11.8165 22.8402 13.1042 22.8402 15C22.8402 16.8958 21.8712 18.1835 20.7148 18.9571C19.5992 19.7034 18.2811 20 17.3593 20H6.72567C6.31526 21.1652 5.20787 22 3.90621 22C2.2551 22 0.916626 20.6568 0.916626 19C0.916626 17.3432 2.2551 16 3.90621 16C5.20787 16 6.31526 16.8348 6.72567 18H17.3593C17.9324 18 18.8564 17.7966 19.6093 17.2929C20.3214 16.8165 20.8472 16.1042 20.8472 15C20.8472 13.8958 20.3214 13.1835 19.6093 12.7071C18.8564 12.2034 17.9324 12 17.3593 12H6.39753C5.47576 12 4.15763 11.7034 3.04202 10.9571C1.88568 10.1835 0.916626 8.89579 0.916626 7C0.916626 5.10421 1.88568 3.81653 3.04202 3.04295C4.15763 2.29662 5.47576 2 6.39753 2H17.0312ZM19.8507 2C19.3003 2 18.8541 2.44772 18.8541 3C18.8541 3.55227 19.3003 4 19.8507 4C20.401 4 20.8472 3.55227 20.8472 3C20.8472 2.44772 20.401 2 19.8507 2ZM3.90621 18C3.35585 18 2.90968 18.4477 2.90968 19C2.90968 19.5523 3.35585 20 3.90621 20C4.45656 20 4.90274 19.5523 4.90274 19C4.90274 18.4477 4.45656 18 3.90621 18Z"
          fill="#000"/>
</svg>
